<svg xmlns="http://www.w3.org/2000/svg" xmlns:xlink="http://www.w3.org/1999/xlink" xml:space="preserve" version="1.1" style="shape-rendering:geometricPrecision;text-rendering:geometricPrecision;image-rendering:optimizeQuality;" viewBox="0 0 6610 12793.75" x="0px" y="0px" fill-rule="evenodd" clip-rule="evenodd"><defs><style type="text/css">
   
    .fil0 {fill:black;fill-rule:nonzero}
   
  </style></defs><g><path class="fil0" d="M3370 6744c153,-119 303,-243 455,-365 133,-96 119,-149 92,-314l-189 -1446 1851 -943c165,-81 331,-58 324,159l1 872c0,135 -35,152 -102,198l-1024 650c-254,137 -227,203 -227,465l12 4111c0,131 -2,122 155,62 328,-164 619,-392 868,-665 257,-283 470,-615 630,-973l0 -2173 355 -803c6,-774 18,-1547 38,-2321 53,-2074 -1322,-3163 -3304,-3258 -1982,95 -3356,1184 -3304,3258 20,774 32,1547 38,2321l355 803 0 2173c161,358 373,690 631,973 249,273 540,501 868,665 157,60 154,69 154,-62l12 -4111c1,-261 27,-326 -221,-462l-1038 -660c-54,-40 -94,-48 -93,-191l0 -872c-6,-217 159,-240 324,-159l1851 943 -188 1443c-20,159 -54,213 94,319 153,117 300,244 452,363 46,36 83,37 130,0z"/></g><text x="0" y="10250" fill="#000000" font-size="5px" font-weight="bold" font-family="'Helvetica Neue', Helvetica, Arial-Unicode, Arial, Sans-serif">Created by ayu</text><text x="0" y="10255" fill="#000000" font-size="5px" font-weight="bold" font-family="'Helvetica Neue', Helvetica, Arial-Unicode, Arial, Sans-serif">from the Noun Project</text></svg>